<svg width="18" height="18" viewBox="0 0 18 18" fill="none" xmlns="http://www.w3.org/2000/svg">
<rect width="18" height="18" fill="#E5E5E5"/>
<g id="Home One page- Light" clip-path="url(#clip0_0_1)">
<rect width="1440" height="8063" transform="translate(-1377 -469)" fill="#F0F0F6"/>
<g id="Right Menu">
<g id="Rectangle 25" filter="url(#filter0_d_0_1)">
<rect x="-45" y="-469" width="108" height="1315" fill="#FAFAFA"/>
</g>
<g id="Menu">
<g id="Cv">
<circle id="Ellipse 11" cx="9" cy="9" r="20" fill="#F0F0F6"/>
<g id="Icons/cv">
<g id="Icons/cv_2">
<g id="Icons/cv_3" clip-path="url(#clip1_0_1)">
<path id="Vector" d="M12.7636 11.272L9.25 14.6259L5.73638 11.272C3.10301 11.381 1 13.4376 1 15.9759V16.3134C1 17.245 1.79185 18.0009 2.76786 18.0009H15.7321C16.7081 18.0009 17.5 17.245 17.5 16.3134V15.9759C17.5 13.4376 15.397 11.381 12.7636 11.272ZM1.50089 2.80635L1.73661 2.85909V4.91221C1.47879 5.05987 1.29464 5.31651 1.29464 5.62589C1.29464 5.9212 1.46406 6.16729 1.70346 6.31846L1.12891 8.5087C1.06629 8.75128 1.20625 9.00089 1.40882 9.00089H2.94833C3.15089 9.00089 3.29085 8.75128 3.22824 8.5087L2.65368 6.31846C2.89308 6.16729 3.0625 5.9212 3.0625 5.62589C3.0625 5.31651 2.87835 5.05987 2.62054 4.91221V3.06299L5.05134 3.62198C4.7346 4.22667 4.53571 4.90167 4.53571 5.62589C4.53571 8.11143 6.64609 10.1259 9.25 10.1259C11.8539 10.1259 13.9643 8.11143 13.9643 5.62589C13.9643 4.90167 13.7691 4.22667 13.4487 3.62198L16.9954 2.80635C17.6657 2.65166 17.6657 1.85362 16.9954 1.69893L9.98292 0.0817384C9.50413 -0.0272461 8.99955 -0.0272461 8.52076 0.0817384L1.50089 1.69541C0.834263 1.8501 0.834263 2.65166 1.50089 2.80635Z" fill="#767676"/>
</g>
</g>
</g>
</g>
</g>
</g>
</g>
<defs>
<filter id="filter0_d_0_1" x="-51" y="-479" width="128" height="1335" filterUnits="userSpaceOnUse" color-interpolation-filters="sRGB">
<feFlood flood-opacity="0" result="BackgroundImageFix"/>
<feColorMatrix in="SourceAlpha" type="matrix" values="0 0 0 0 0 0 0 0 0 0 0 0 0 0 0 0 0 0 127 0" result="hardAlpha"/>
<feOffset dx="4"/>
<feGaussianBlur stdDeviation="5"/>
<feColorMatrix type="matrix" values="0 0 0 0 0.184314 0 0 0 0 0.478431 0 0 0 0 0.976471 0 0 0 0.1 0"/>
<feBlend mode="normal" in2="BackgroundImageFix" result="effect1_dropShadow_0_1"/>
<feBlend mode="normal" in="SourceGraphic" in2="effect1_dropShadow_0_1" result="shape"/>
</filter>
<clipPath id="clip0_0_1">
<rect width="1440" height="8063" fill="white" transform="translate(-1377 -469)"/>
</clipPath>
<clipPath id="clip1_0_1">
<rect width="18" height="18" fill="white"/>
</clipPath>
</defs>
</svg>
